<?xml version="1.0" encoding="UTF-8" standalone="no"?>
<svg
   xmlns:dc="http://purl.org/dc/elements/1.1/"
   xmlns:cc="http://creativecommons.org/ns#"
   xmlns:rdf="http://www.w3.org/1999/02/22-rdf-syntax-ns#"
   xmlns:svg="http://www.w3.org/2000/svg"
   xmlns="http://www.w3.org/2000/svg"
   xmlns:sodipodi="http://sodipodi.sourceforge.net/DTD/sodipodi-0.dtd"
   xmlns:inkscape="http://www.inkscape.org/namespaces/inkscape"
   width="2250"
   height="2250"
   viewBox="0 0 25in 25in"
   id="svgGrid8x8"
   version="1.1"
   inkscape:version="0.91 r13725"
   sodipodi:docname="grid_8x8 - Copy (2).svg">
  <metadata
     id="metadata28">
    <rdf:RDF>
      <cc:Work
         rdf:about="">
        <dc:format>image/svg+xml</dc:format>
        <dc:type
           rdf:resource="http://purl.org/dc/dcmitype/StillImage" />
        <dc:title></dc:title>
      </cc:Work>
    </rdf:RDF>
  </metadata>
  <defs
     id="defs26" />
  <sodipodi:namedview
     pagecolor="#ffffff"
     bordercolor="#666666"
     borderopacity="1"
     objecttolerance="10"
     gridtolerance="10"
     guidetolerance="10"
     inkscape:pageopacity="0"
     inkscape:pageshadow="2"
     inkscape:window-width="1536"
     inkscape:window-height="841"
     id="namedview24"
     showgrid="false"
     showguides="true"
     inkscape:guide-bbox="true"
     inkscape:zoom="1.1690937"
     inkscape:cx="720.97665"
     inkscape:cy="1990.3603"
     inkscape:window-x="-8"
     inkscape:window-y="-8"
     inkscape:window-maximized="1"
     inkscape:current-layer="layer1"
     units="px">
    <sodipodi:guide
       position="340.25343,1964.1186"
       orientation="0,1"
       id="guide4156" />
    <sodipodi:guide
       position="339.47678,1975.3536"
       orientation="1,0"
       id="guide4158" />
    <sodipodi:guide
       position="678.82157,1967.5662"
       orientation="1,0"
       id="guide4160" />
    <sodipodi:guide
       position="1019.1833,1958.5777"
       orientation="1,0"
       id="guide4164" />
    <sodipodi:guide
       position="1358.3337,1965.4493"
       orientation="1,0"
       id="guide4166" />
    <sodipodi:guide
       position="1697.1199,1975.2216"
       orientation="1,0"
       id="guide4168" />
    <sodipodi:guide
       position="2036.5176,1975.3967"
       orientation="1,0"
       id="guide4172" />
  </sodipodi:namedview>
  <g
     inkscape:label="Layer 1"
     inkscape:groupmode="layer"
     id="layer1">
    <path
       style="fill:none;fill-rule:evenodd;stroke:#000000;stroke-width:0.00096099in;stroke-linecap:butt;stroke-linejoin:miter;stroke-miterlimit:4;stroke-dasharray:none;stroke-opacity:1"
       d="M 0.03569412,285.90326 C 37.912144,287.54979 155.11002,270.06953 142.49678,240.12384 118.0558,182.09738 259.8183,156.89358 195.86421,228.53525 c -35.39911,39.65426 123.55364,65.19187 143.59314,57.28368"
       id="h-path-2"
       inkscape:connector-curvature="0"
       sodipodi:nodetypes="cssc" />
    <path
       style="fill:none;fill-rule:evenodd;stroke:#000000;stroke-width:0.00098575in;stroke-linecap:butt;stroke-linejoin:miter;stroke-miterlimit:4;stroke-dasharray:none;stroke-opacity:1"
       d="m 339.47509,285.73191 c 98.3169,-21.95184 178.24682,14.93883 152.76781,-37.6291 -44.51166,-91.8358 99.81787,-120.78511 64.86817,0.36998 -18.15969,62.95161 116.57142,39.28789 121.81862,37.97054"
       id="h-path-3"
       inkscape:connector-curvature="0"
       sodipodi:nodetypes="cssc" />
    <path
       style="fill:none;fill-rule:evenodd;stroke:#000000;stroke-width:0.00099276in;stroke-linecap:butt;stroke-linejoin:miter;stroke-miterlimit:4;stroke-dasharray:none;stroke-opacity:1"
       d="m 678.94229,285.99973 c 48.6553,0.79401 215.6431,-3.50535 142.305,-48.675 -50.0721,-30.83996 95.1816,-107.89372 56.9562,-11.58823 -32.4874,81.84907 141.49301,61.4489 140.61321,60.26997"
       id="h-path-4"
       inkscape:connector-curvature="0"
       sodipodi:nodetypes="cssc" />
    <path
       style="fill:none;fill-rule:evenodd;stroke:#000000;stroke-width:0.00097401in;stroke-linecap:butt;stroke-linejoin:miter;stroke-miterlimit:4;stroke-dasharray:none;stroke-opacity:1"
       d="m 1019.3755,286.34861 c 33.216,-0.063 177.2317,16.71459 153.0215,-35.13401 -29.4268,-63.02033 99.0201,-58.38662 39.7833,-11.06001 -54.4227,43.48032 139.055,44.11883 146.1872,45.50237"
       id="h-path-5"
       inkscape:connector-curvature="0"
       sodipodi:nodetypes="cssc" />
    <path
       style="fill:none;fill-rule:evenodd;stroke:#000000;stroke-width:0.0010623in;stroke-linecap:butt;stroke-linejoin:miter;stroke-miterlimit:4;stroke-dasharray:none;stroke-opacity:1"
       d="m 1358.4335,285.96795 c 37.1864,-0.033 187.8483,4.40932 165.771,-45.45327 -27.3125,-61.6864 88.3127,-63.10268 61.3904,-12.31013 -42.2357,79.6831 103.8432,57.05312 111.8323,58.10935"
       id="h-path-6"
       inkscape:connector-curvature="0"
       sodipodi:nodetypes="cssc" />
    <path
       style="fill:none;fill-rule:evenodd;stroke:#000000;stroke-width:0.00096099in;stroke-linecap:butt;stroke-linejoin:miter;stroke-miterlimit:4;stroke-dasharray:none;stroke-opacity:1"
       d="M 0.00187811,2.1124379 C 37.878328,0.46590794 155.0762,17.946168 142.46296,47.891858 118.02198,105.91832 259.78447,131.12213 195.83039,59.480448 160.43128,19.826188 315.8361,-1.3642572 338.88641,0.14596978"
       id="h-path-2-5"
       inkscape:connector-curvature="0"
       sodipodi:nodetypes="cssc" />
    <path
       style="fill:none;fill-rule:evenodd;stroke:#000000;stroke-width:0.00098575in;stroke-linecap:butt;stroke-linejoin:miter;stroke-miterlimit:4;stroke-dasharray:none;stroke-opacity:1"
       d="M 339.00182,0.42830504 C 437.31872,22.380145 517.68809,-12.655042 492.20908,39.912888 447.69742,131.74869 592.02695,160.698 557.07725,39.542908 538.91756,-23.408702 673.64867,0.25501794 678.89587,1.5723679"
       id="h-path-3-9"
       inkscape:connector-curvature="0"
       sodipodi:nodetypes="cssc" />
    <path
       style="fill:none;fill-rule:evenodd;stroke:#000000;stroke-width:0.00099276in;stroke-linecap:butt;stroke-linejoin:miter;stroke-miterlimit:4;stroke-dasharray:none;stroke-opacity:1"
       d="m 678.90847,2.0159679 c 48.6553,-0.79401 215.64311,3.50535 142.305,48.6750001 -50.0721,30.83996 95.18161,107.893722 56.95621,11.58823 C 845.68227,-19.569872 1019.6626,0.83029794 1018.7828,2.0092279"
       id="h-path-4-3"
       inkscape:connector-curvature="0"
       sodipodi:nodetypes="cssc" />
    <path
       style="fill:none;fill-rule:evenodd;stroke:#000000;stroke-width:0.00097401in;stroke-linecap:butt;stroke-linejoin:miter;stroke-miterlimit:4;stroke-dasharray:none;stroke-opacity:1"
       d="m 1019.3416,1.6670879 c 33.216,0.063 177.2317,-16.7145899 153.0215,35.1340101 -29.4268,63.02033 99.0201,58.38662 39.7833,11.06001 -54.4227,-43.4803201 139.055,-44.1188301 146.1872,-45.5023701"
       id="h-path-5-2"
       inkscape:connector-curvature="0"
       sodipodi:nodetypes="cssc" />
    <path
       style="fill:none;fill-rule:evenodd;stroke:#000000;stroke-width:0.0010623in;stroke-linecap:butt;stroke-linejoin:miter;stroke-miterlimit:4;stroke-dasharray:none;stroke-opacity:1"
       d="m 1358.3996,2.0477479 c 37.1864,0.033 187.8483,-4.40932 165.771,45.4532701 -27.3125,61.686402 88.3127,63.102682 61.3904,12.31013 -42.2357,-79.6831 103.8432,-57.0531201 111.8323,-58.1093501"
       id="h-path-6-3"
       inkscape:connector-curvature="0"
       sodipodi:nodetypes="cssc" />
  </g>
</svg>
