<?xml version="1.0" encoding="UTF-8" standalone="no"?>
<svg
 width="25in"
 height="25in"
 viewBox="0 0 25in 25in"
 id="svgGrid6x6"
 version="1.1" inkscape:version="0.91 r13725"
 sodipodi:docname="grid_6x6.svg"
>
<g inkscape:label="Layer 1"
 inkscape:groupmode="layer"
 id="layer1"
 transform="translate(0,0)">

                        <path
                           style="fill:none;fill-rule:evenodd;
                           stroke:#000000;stroke-width:0.00096099in;
                           stroke-linecap:butt;stroke-linejoin:miter;
                           stroke-miterlimit:4;stroke-dasharray:none;
                           stroke-opacity:1"
                         d = "m 0.0,0.0 
 c 33.216,-0.063 177.2317,16.71459 153.0215,-35.13401 -29.4268,-63.02033 99.0201,-58.38662 39.7833,-11.06001 -54.4227,43.48032 139.055,44.11883 146.1872,45.50237"
id="h-path-005"
inkscape:connector-curvature="0"
sodipodi:nodetypes="cssc" />
                        <path
                           style="fill:none;fill-rule:evenodd;
                           stroke:#000000;stroke-width:0.00096099in;
                           stroke-linecap:butt;stroke-linejoin:miter;
                           stroke-miterlimit:4;stroke-dasharray:none;
                           stroke-opacity:1"
                         d = "m 0.0,333.0 
 c 33.216,-0.063 177.2317,16.71459 153.0215,-35.13401 -29.4268,-63.02033 99.0201,-58.38662 39.7833,-11.06001 -54.4227,43.48032 139.055,44.11883 146.1872,45.50237"
id="h-path-005"
inkscape:connector-curvature="0"
sodipodi:nodetypes="cssc" />
                        <path
                           style="fill:none;fill-rule:evenodd;
                           stroke:#000000;stroke-width:0.00096099in;
                           stroke-linecap:butt;stroke-linejoin:miter;
                           stroke-miterlimit:4;stroke-dasharray:none;
                           stroke-opacity:1"
                         d = "m 0.0,666.0 
 c 98.3169,-21.95184 178.24682,14.93883 152.76781,-37.6291 -44.51166,-91.8358 99.81787,-120.78511 64.86817,0.36998 -18.15969,62.95161 116.57142,39.28789 121.81862,37.97054"
id="h-path-003"
inkscape:connector-curvature="0"
sodipodi:nodetypes="cssc" />
                        <path
                           style="fill:none;fill-rule:evenodd;
                           stroke:#000000;stroke-width:0.00096099in;
                           stroke-linecap:butt;stroke-linejoin:miter;
                           stroke-miterlimit:4;stroke-dasharray:none;
                           stroke-opacity:1"
                         d = "m 0.0,999.0 
 c 98.3169,-21.95184 178.24682,14.93883 152.76781,-37.6291 -44.51166,-91.8358 99.81787,-120.78511 64.86817,0.36998 -18.15969,62.95161 116.57142,39.28789 121.81862,37.97054"
id="h-path-003"
inkscape:connector-curvature="0"
sodipodi:nodetypes="cssc" />
                        <path
                           style="fill:none;fill-rule:evenodd;
                           stroke:#000000;stroke-width:0.00096099in;
                           stroke-linecap:butt;stroke-linejoin:miter;
                           stroke-miterlimit:4;stroke-dasharray:none;
                           stroke-opacity:1"
                         d = "m 0.0,1332.0 
 c 48.6553,0.79401 215.6431,-3.50535 142.305,-48.675 -50.0721,-30.83996 95.1816,-107.89372 56.9562,-11.58823 -32.4874,81.84907 141.49301,61.4489 140.61321,60.26997"
id="h-path-004"
inkscape:connector-curvature="0"
sodipodi:nodetypes="cssc" />
                        <path
                           style="fill:none;fill-rule:evenodd;
                           stroke:#000000;stroke-width:0.00096099in;
                           stroke-linecap:butt;stroke-linejoin:miter;
                           stroke-miterlimit:4;stroke-dasharray:none;
                           stroke-opacity:1"
                         d = "m 0.0,1665.0 
 c 48.6553,0.79401 215.6431,-3.50535 142.305,-48.675 -50.0721,-30.83996 95.1816,-107.89372 56.9562,-11.58823 -32.4874,81.84907 141.49301,61.4489 140.61321,60.26997"
id="h-path-004"
inkscape:connector-curvature="0"
sodipodi:nodetypes="cssc" />
                        <path
                           style="fill:none;fill-rule:evenodd;
                           stroke:#000000;stroke-width:0.00096099in;
                           stroke-linecap:butt;stroke-linejoin:miter;
                           stroke-miterlimit:4;stroke-dasharray:none;
                           stroke-opacity:1"
                         d = "m 333.0,0.0 
 c 33.216,-0.063 177.2317,16.71459 153.0215,-35.13401 -29.4268,-63.02033 99.0201,-58.38662 39.7833,-11.06001 -54.4227,43.48032 139.055,44.11883 146.1872,45.50237"
id="h-path-005"
inkscape:connector-curvature="0"
sodipodi:nodetypes="cssc" />
                        <path
                           style="fill:none;fill-rule:evenodd;
                           stroke:#000000;stroke-width:0.00096099in;
                           stroke-linecap:butt;stroke-linejoin:miter;
                           stroke-miterlimit:4;stroke-dasharray:none;
                           stroke-opacity:1"
                         d = "m 333.0,333.0 
 c 98.3169,-21.95184 178.24682,14.93883 152.76781,-37.6291 -44.51166,-91.8358 99.81787,-120.78511 64.86817,0.36998 -18.15969,62.95161 116.57142,39.28789 121.81862,37.97054"
id="h-path-003"
inkscape:connector-curvature="0"
sodipodi:nodetypes="cssc" />
                        <path
                           style="fill:none;fill-rule:evenodd;
                           stroke:#000000;stroke-width:0.00096099in;
                           stroke-linecap:butt;stroke-linejoin:miter;
                           stroke-miterlimit:4;stroke-dasharray:none;
                           stroke-opacity:1"
                         d = "m 333.0,666.0 
 c 37.1864,-0.033 187.8483,4.40932 165.771,-45.45327 -27.3125,-61.6864 88.3127,-63.10268 61.3904,-12.31013 -42.2357,79.6831 103.8432,57.05312 111.8323,58.10935"
id="h-path-006"
inkscape:connector-curvature="0"
sodipodi:nodetypes="cssc" />
                        <path
                           style="fill:none;fill-rule:evenodd;
                           stroke:#000000;stroke-width:0.00096099in;
                           stroke-linecap:butt;stroke-linejoin:miter;
                           stroke-miterlimit:4;stroke-dasharray:none;
                           stroke-opacity:1"
                         d = "m 333.0,999.0 
 c 33.216,-0.063 177.2317,16.71459 153.0215,-35.13401 -29.4268,-63.02033 99.0201,-58.38662 39.7833,-11.06001 -54.4227,43.48032 139.055,44.11883 146.1872,45.50237"
id="h-path-005"
inkscape:connector-curvature="0"
sodipodi:nodetypes="cssc" />
                        <path
                           style="fill:none;fill-rule:evenodd;
                           stroke:#000000;stroke-width:0.00096099in;
                           stroke-linecap:butt;stroke-linejoin:miter;
                           stroke-miterlimit:4;stroke-dasharray:none;
                           stroke-opacity:1"
                         d = "m 333.0,1332.0 
 c 98.3169,-21.95184 178.24682,14.93883 152.76781,-37.6291 -44.51166,-91.8358 99.81787,-120.78511 64.86817,0.36998 -18.15969,62.95161 116.57142,39.28789 121.81862,37.97054"
id="h-path-003"
inkscape:connector-curvature="0"
sodipodi:nodetypes="cssc" />
                        <path
                           style="fill:none;fill-rule:evenodd;
                           stroke:#000000;stroke-width:0.00096099in;
                           stroke-linecap:butt;stroke-linejoin:miter;
                           stroke-miterlimit:4;stroke-dasharray:none;
                           stroke-opacity:1"
                         d = "m 333.0,1665.0 
 c 98.3169,-21.95184 178.24682,14.93883 152.76781,-37.6291 -44.51166,-91.8358 99.81787,-120.78511 64.86817,0.36998 -18.15969,62.95161 116.57142,39.28789 121.81862,37.97054"
id="h-path-003"
inkscape:connector-curvature="0"
sodipodi:nodetypes="cssc" />
                        <path
                           style="fill:none;fill-rule:evenodd;
                           stroke:#000000;stroke-width:0.00096099in;
                           stroke-linecap:butt;stroke-linejoin:miter;
                           stroke-miterlimit:4;stroke-dasharray:none;
                           stroke-opacity:1"
                         d = "m 666.0,0.0 
 c 98.3169,-21.95184 178.24682,14.93883 152.76781,-37.6291 -44.51166,-91.8358 99.81787,-120.78511 64.86817,0.36998 -18.15969,62.95161 116.57142,39.28789 121.81862,37.97054"
id="h-path-003"
inkscape:connector-curvature="0"
sodipodi:nodetypes="cssc" />
                        <path
                           style="fill:none;fill-rule:evenodd;
                           stroke:#000000;stroke-width:0.00096099in;
                           stroke-linecap:butt;stroke-linejoin:miter;
                           stroke-miterlimit:4;stroke-dasharray:none;
                           stroke-opacity:1"
                         d = "m 666.0,333.0 
 c 37.1864,-0.033 187.8483,4.40932 165.771,-45.45327 -27.3125,-61.6864 88.3127,-63.10268 61.3904,-12.31013 -42.2357,79.6831 103.8432,57.05312 111.8323,58.10935"
id="h-path-006"
inkscape:connector-curvature="0"
sodipodi:nodetypes="cssc" />
                        <path
                           style="fill:none;fill-rule:evenodd;
                           stroke:#000000;stroke-width:0.00096099in;
                           stroke-linecap:butt;stroke-linejoin:miter;
                           stroke-miterlimit:4;stroke-dasharray:none;
                           stroke-opacity:1"
                         d = "m 666.0,666.0 
 c 48.6553,0.79401 215.6431,-3.50535 142.305,-48.675 -50.0721,-30.83996 95.1816,-107.89372 56.9562,-11.58823 -32.4874,81.84907 141.49301,61.4489 140.61321,60.26997"
id="h-path-004"
inkscape:connector-curvature="0"
sodipodi:nodetypes="cssc" />
                        <path
                           style="fill:none;fill-rule:evenodd;
                           stroke:#000000;stroke-width:0.00096099in;
                           stroke-linecap:butt;stroke-linejoin:miter;
                           stroke-miterlimit:4;stroke-dasharray:none;
                           stroke-opacity:1"
                         d = "m 666.0,999.0 
 c 37.1864,-0.033 187.8483,4.40932 165.771,-45.45327 -27.3125,-61.6864 88.3127,-63.10268 61.3904,-12.31013 -42.2357,79.6831 103.8432,57.05312 111.8323,58.10935"
id="h-path-006"
inkscape:connector-curvature="0"
sodipodi:nodetypes="cssc" />
                        <path
                           style="fill:none;fill-rule:evenodd;
                           stroke:#000000;stroke-width:0.00096099in;
                           stroke-linecap:butt;stroke-linejoin:miter;
                           stroke-miterlimit:4;stroke-dasharray:none;
                           stroke-opacity:1"
                         d = "m 666.0,1332.0 
 c 98.3169,-21.95184 178.24682,14.93883 152.76781,-37.6291 -44.51166,-91.8358 99.81787,-120.78511 64.86817,0.36998 -18.15969,62.95161 116.57142,39.28789 121.81862,37.97054"
id="h-path-003"
inkscape:connector-curvature="0"
sodipodi:nodetypes="cssc" />
                        <path
                           style="fill:none;fill-rule:evenodd;
                           stroke:#000000;stroke-width:0.00096099in;
                           stroke-linecap:butt;stroke-linejoin:miter;
                           stroke-miterlimit:4;stroke-dasharray:none;
                           stroke-opacity:1"
                         d = "m 666.0,1665.0 
 c 48.6553,0.79401 215.6431,-3.50535 142.305,-48.675 -50.0721,-30.83996 95.1816,-107.89372 56.9562,-11.58823 -32.4874,81.84907 141.49301,61.4489 140.61321,60.26997"
id="h-path-004"
inkscape:connector-curvature="0"
sodipodi:nodetypes="cssc" />
                        <path
                           style="fill:none;fill-rule:evenodd;
                           stroke:#000000;stroke-width:0.00096099in;
                           stroke-linecap:butt;stroke-linejoin:miter;
                           stroke-miterlimit:4;stroke-dasharray:none;
                           stroke-opacity:1"
                         d = "m 999.0,0.0 
 c 37.1864,-0.033 187.8483,4.40932 165.771,-45.45327 -27.3125,-61.6864 88.3127,-63.10268 61.3904,-12.31013 -42.2357,79.6831 103.8432,57.05312 111.8323,58.10935"
id="h-path-006"
inkscape:connector-curvature="0"
sodipodi:nodetypes="cssc" />
                        <path
                           style="fill:none;fill-rule:evenodd;
                           stroke:#000000;stroke-width:0.00096099in;
                           stroke-linecap:butt;stroke-linejoin:miter;
                           stroke-miterlimit:4;stroke-dasharray:none;
                           stroke-opacity:1"
                         d = "m 999.0,333.0 
 c 37.1864,-0.033 187.8483,4.40932 165.771,-45.45327 -27.3125,-61.6864 88.3127,-63.10268 61.3904,-12.31013 -42.2357,79.6831 103.8432,57.05312 111.8323,58.10935"
id="h-path-006"
inkscape:connector-curvature="0"
sodipodi:nodetypes="cssc" />
                        <path
                           style="fill:none;fill-rule:evenodd;
                           stroke:#000000;stroke-width:0.00096099in;
                           stroke-linecap:butt;stroke-linejoin:miter;
                           stroke-miterlimit:4;stroke-dasharray:none;
                           stroke-opacity:1"
                         d = "m 999.0,666.0 
 c 98.3169,-21.95184 178.24682,14.93883 152.76781,-37.6291 -44.51166,-91.8358 99.81787,-120.78511 64.86817,0.36998 -18.15969,62.95161 116.57142,39.28789 121.81862,37.97054"
id="h-path-003"
inkscape:connector-curvature="0"
sodipodi:nodetypes="cssc" />
                        <path
                           style="fill:none;fill-rule:evenodd;
                           stroke:#000000;stroke-width:0.00096099in;
                           stroke-linecap:butt;stroke-linejoin:miter;
                           stroke-miterlimit:4;stroke-dasharray:none;
                           stroke-opacity:1"
                         d = "m 999.0,999.0 
 c 48.6553,0.79401 215.6431,-3.50535 142.305,-48.675 -50.0721,-30.83996 95.1816,-107.89372 56.9562,-11.58823 -32.4874,81.84907 141.49301,61.4489 140.61321,60.26997"
id="h-path-004"
inkscape:connector-curvature="0"
sodipodi:nodetypes="cssc" />
                        <path
                           style="fill:none;fill-rule:evenodd;
                           stroke:#000000;stroke-width:0.00096099in;
                           stroke-linecap:butt;stroke-linejoin:miter;
                           stroke-miterlimit:4;stroke-dasharray:none;
                           stroke-opacity:1"
                         d = "m 999.0,1332.0 
 c 98.3169,-21.95184 178.24682,14.93883 152.76781,-37.6291 -44.51166,-91.8358 99.81787,-120.78511 64.86817,0.36998 -18.15969,62.95161 116.57142,39.28789 121.81862,37.97054"
id="h-path-003"
inkscape:connector-curvature="0"
sodipodi:nodetypes="cssc" />
                        <path
                           style="fill:none;fill-rule:evenodd;
                           stroke:#000000;stroke-width:0.00096099in;
                           stroke-linecap:butt;stroke-linejoin:miter;
                           stroke-miterlimit:4;stroke-dasharray:none;
                           stroke-opacity:1"
                         d = "m 999.0,1665.0 
 c 37.1864,-0.033 187.8483,4.40932 165.771,-45.45327 -27.3125,-61.6864 88.3127,-63.10268 61.3904,-12.31013 -42.2357,79.6831 103.8432,57.05312 111.8323,58.10935"
id="h-path-006"
inkscape:connector-curvature="0"
sodipodi:nodetypes="cssc" />
                        <path
                           style="fill:none;fill-rule:evenodd;
                           stroke:#000000;stroke-width:0.00096099in;
                           stroke-linecap:butt;stroke-linejoin:miter;
                           stroke-miterlimit:4;stroke-dasharray:none;
                           stroke-opacity:1"
                         d = "m 1332.0,0.0 
 c 37.1864,-0.033 187.8483,4.40932 165.771,-45.45327 -27.3125,-61.6864 88.3127,-63.10268 61.3904,-12.31013 -42.2357,79.6831 103.8432,57.05312 111.8323,58.10935"
id="h-path-006"
inkscape:connector-curvature="0"
sodipodi:nodetypes="cssc" />
                        <path
                           style="fill:none;fill-rule:evenodd;
                           stroke:#000000;stroke-width:0.00096099in;
                           stroke-linecap:butt;stroke-linejoin:miter;
                           stroke-miterlimit:4;stroke-dasharray:none;
                           stroke-opacity:1"
                         d = "m 1332.0,333.0 
 c 37.1864,-0.033 187.8483,4.40932 165.771,-45.45327 -27.3125,-61.6864 88.3127,-63.10268 61.3904,-12.31013 -42.2357,79.6831 103.8432,57.05312 111.8323,58.10935"
id="h-path-006"
inkscape:connector-curvature="0"
sodipodi:nodetypes="cssc" />
                        <path
                           style="fill:none;fill-rule:evenodd;
                           stroke:#000000;stroke-width:0.00096099in;
                           stroke-linecap:butt;stroke-linejoin:miter;
                           stroke-miterlimit:4;stroke-dasharray:none;
                           stroke-opacity:1"
                         d = "m 1332.0,666.0 
 c 98.3169,-21.95184 178.24682,14.93883 152.76781,-37.6291 -44.51166,-91.8358 99.81787,-120.78511 64.86817,0.36998 -18.15969,62.95161 116.57142,39.28789 121.81862,37.97054"
id="h-path-003"
inkscape:connector-curvature="0"
sodipodi:nodetypes="cssc" />
                        <path
                           style="fill:none;fill-rule:evenodd;
                           stroke:#000000;stroke-width:0.00096099in;
                           stroke-linecap:butt;stroke-linejoin:miter;
                           stroke-miterlimit:4;stroke-dasharray:none;
                           stroke-opacity:1"
                         d = "m 1332.0,999.0 
 c 48.6553,0.79401 215.6431,-3.50535 142.305,-48.675 -50.0721,-30.83996 95.1816,-107.89372 56.9562,-11.58823 -32.4874,81.84907 141.49301,61.4489 140.61321,60.26997"
id="h-path-004"
inkscape:connector-curvature="0"
sodipodi:nodetypes="cssc" />
                        <path
                           style="fill:none;fill-rule:evenodd;
                           stroke:#000000;stroke-width:0.00096099in;
                           stroke-linecap:butt;stroke-linejoin:miter;
                           stroke-miterlimit:4;stroke-dasharray:none;
                           stroke-opacity:1"
                         d = "m 1332.0,1332.0 
 c 98.3169,-21.95184 178.24682,14.93883 152.76781,-37.6291 -44.51166,-91.8358 99.81787,-120.78511 64.86817,0.36998 -18.15969,62.95161 116.57142,39.28789 121.81862,37.97054"
id="h-path-003"
inkscape:connector-curvature="0"
sodipodi:nodetypes="cssc" />
                        <path
                           style="fill:none;fill-rule:evenodd;
                           stroke:#000000;stroke-width:0.00096099in;
                           stroke-linecap:butt;stroke-linejoin:miter;
                           stroke-miterlimit:4;stroke-dasharray:none;
                           stroke-opacity:1"
                         d = "m 1332.0,1665.0 
 c 37.1864,-0.033 187.8483,4.40932 165.771,-45.45327 -27.3125,-61.6864 88.3127,-63.10268 61.3904,-12.31013 -42.2357,79.6831 103.8432,57.05312 111.8323,58.10935"
id="h-path-006"
inkscape:connector-curvature="0"
sodipodi:nodetypes="cssc" />
                        <path
                           style="fill:none;fill-rule:evenodd;
                           stroke:#000000;stroke-width:0.00096099in;
                           stroke-linecap:butt;stroke-linejoin:miter;
                           stroke-miterlimit:4;stroke-dasharray:none;
                           stroke-opacity:1"
                         d = "m 1665.0,0.0 
 c 98.3169,-21.95184 178.24682,14.93883 152.76781,-37.6291 -44.51166,-91.8358 99.81787,-120.78511 64.86817,0.36998 -18.15969,62.95161 116.57142,39.28789 121.81862,37.97054"
id="h-path-003"
inkscape:connector-curvature="0"
sodipodi:nodetypes="cssc" />
                        <path
                           style="fill:none;fill-rule:evenodd;
                           stroke:#000000;stroke-width:0.00096099in;
                           stroke-linecap:butt;stroke-linejoin:miter;
                           stroke-miterlimit:4;stroke-dasharray:none;
                           stroke-opacity:1"
                         d = "m 1665.0,333.0 
 c 37.1864,-0.033 187.8483,4.40932 165.771,-45.45327 -27.3125,-61.6864 88.3127,-63.10268 61.3904,-12.31013 -42.2357,79.6831 103.8432,57.05312 111.8323,58.10935"
id="h-path-006"
inkscape:connector-curvature="0"
sodipodi:nodetypes="cssc" />
                        <path
                           style="fill:none;fill-rule:evenodd;
                           stroke:#000000;stroke-width:0.00096099in;
                           stroke-linecap:butt;stroke-linejoin:miter;
                           stroke-miterlimit:4;stroke-dasharray:none;
                           stroke-opacity:1"
                         d = "m 1665.0,666.0 
 c 98.3169,-21.95184 178.24682,14.93883 152.76781,-37.6291 -44.51166,-91.8358 99.81787,-120.78511 64.86817,0.36998 -18.15969,62.95161 116.57142,39.28789 121.81862,37.97054"
id="h-path-003"
inkscape:connector-curvature="0"
sodipodi:nodetypes="cssc" />
                        <path
                           style="fill:none;fill-rule:evenodd;
                           stroke:#000000;stroke-width:0.00096099in;
                           stroke-linecap:butt;stroke-linejoin:miter;
                           stroke-miterlimit:4;stroke-dasharray:none;
                           stroke-opacity:1"
                         d = "m 1665.0,999.0 
 c 33.216,-0.063 177.2317,16.71459 153.0215,-35.13401 -29.4268,-63.02033 99.0201,-58.38662 39.7833,-11.06001 -54.4227,43.48032 139.055,44.11883 146.1872,45.50237"
id="h-path-005"
inkscape:connector-curvature="0"
sodipodi:nodetypes="cssc" />
                        <path
                           style="fill:none;fill-rule:evenodd;
                           stroke:#000000;stroke-width:0.00096099in;
                           stroke-linecap:butt;stroke-linejoin:miter;
                           stroke-miterlimit:4;stroke-dasharray:none;
                           stroke-opacity:1"
                         d = "m 1665.0,1332.0 
 c 48.6553,0.79401 215.6431,-3.50535 142.305,-48.675 -50.0721,-30.83996 95.1816,-107.89372 56.9562,-11.58823 -32.4874,81.84907 141.49301,61.4489 140.61321,60.26997"
id="h-path-004"
inkscape:connector-curvature="0"
sodipodi:nodetypes="cssc" />
                        <path
                           style="fill:none;fill-rule:evenodd;
                           stroke:#000000;stroke-width:0.00096099in;
                           stroke-linecap:butt;stroke-linejoin:miter;
                           stroke-miterlimit:4;stroke-dasharray:none;
                           stroke-opacity:1"
                         d = "m 1665.0,1665.0 
 c 37.1864,-0.033 187.8483,4.40932 165.771,-45.45327 -27.3125,-61.6864 88.3127,-63.10268 61.3904,-12.31013 -42.2357,79.6831 103.8432,57.05312 111.8323,58.10935"
id="h-path-006"
inkscape:connector-curvature="0"
sodipodi:nodetypes="cssc" />
</g>
</svg>