<?xml version="1.0" encoding="UTF-8" standalone="no"?>
<svg
 width="25in"
 height="25in"
 viewBox="0 0 25in 25in"
 id="svgGrid8x8"
 version="1.1" inkscape:version="0.91 r13725"
 sodipodi:docname="grid_8x8.svg"
>
<g inkscape:label="Layer 1"
 inkscape:groupmode="layer"
 id="layer1"
 transform="translate(0,0)">
<path style="fill:none; fill-rule:evenodd; stroke:#000000; stroke-width:0.001in; stroke-linecap:butt; stroke-linejoin:miter; stroke-opacity:1; stroke-miterlimit:4; stroke-dasharray:none"
 d = "M0 0 v 2250"
 id = "v-path-left"
 inkscape:connector-curvature="0"
/>
<path style="fill:none; fill-rule:evenodd; stroke:#000000; stroke-width:0.001in; stroke-linecap:butt; stroke-linejoin:miter; stroke-opacity:1; stroke-miterlimit:4; stroke-dasharray:none"
 d = "M2250 0  v 2249"
 id = "v-path-right"
 inkscape:connector-curvature="0"
/>
<path style="fill:none; fill-rule:evenodd; stroke:#000000; stroke-width:0.001in; stroke-linecap:butt; stroke-linejoin:miter; stroke-opacity:1; stroke-miterlimit:4; stroke-dasharray:none"
 d = "M270.0 0 v 2249"
 id = "v-path-1"
 inkscape:connector-curvature="0"
/>
<path style="fill:none; fill-rule:evenodd; stroke:#000000; stroke-width:0.001in; stroke-linecap:butt; stroke-linejoin:miter; stroke-opacity:1; stroke-miterlimit:4; stroke-dasharray:none"
 d = "M540.0 0 v 2249"
 id = "v-path-2"
 inkscape:connector-curvature="0"
/>
<path style="fill:none; fill-rule:evenodd; stroke:#000000; stroke-width:0.001in; stroke-linecap:butt; stroke-linejoin:miter; stroke-opacity:1; stroke-miterlimit:4; stroke-dasharray:none"
 d = "M810.0 0 v 2249"
 id = "v-path-3"
 inkscape:connector-curvature="0"
/>
<path style="fill:none; fill-rule:evenodd; stroke:#000000; stroke-width:0.001in; stroke-linecap:butt; stroke-linejoin:miter; stroke-opacity:1; stroke-miterlimit:4; stroke-dasharray:none"
 d = "M1080.0 0 v 2249"
 id = "v-path-4"
 inkscape:connector-curvature="0"
/>
<path style="fill:none; fill-rule:evenodd; stroke:#000000; stroke-width:0.001in; stroke-linecap:butt; stroke-linejoin:miter; stroke-opacity:1; stroke-miterlimit:4; stroke-dasharray:none"
 d = "M1350.0 0 v 2249"
 id = "v-path-5"
 inkscape:connector-curvature="0"
/>
<path style="fill:none; fill-rule:evenodd; stroke:#000000; stroke-width:0.001in; stroke-linecap:butt; stroke-linejoin:miter; stroke-opacity:1; stroke-miterlimit:4; stroke-dasharray:none"
 d = "M1620.0 0 v 2249"
 id = "v-path-6"
 inkscape:connector-curvature="0"
/>
<path style="fill:none; fill-rule:evenodd; stroke:#000000; stroke-width:0.001in; stroke-linecap:butt; stroke-linejoin:miter; stroke-opacity:1; stroke-miterlimit:4; stroke-dasharray:none"
 d = "M1890.0 0 v 2249"
 id = "v-path-7"
 inkscape:connector-curvature="0"
/>
<path style="fill:none; fill-rule:evenodd; stroke:#000000; stroke-width:0.001in; stroke-linecap:butt; stroke-linejoin:miter; stroke-opacity:1; stroke-miterlimit:4; stroke-dasharray:none"
 d = "M2160.0 0 v 2249"
 id = "v-path-8"
 inkscape:connector-curvature="0"
/>
<path style="fill:none; fill-rule:evenodd; stroke:#000000; stroke-width:0.001in; stroke-linecap:butt; stroke-linejoin:miter; stroke-opacity:1; stroke-miterlimit:4; stroke-dasharray:none"
 d = "M 0,0 C 2250"
 id = "h-path-top"
 inkscape:connector-curvature="0"
/>
<path style="fill:none; fill-rule:evenodd; stroke:#000000; stroke-width:0.001in; stroke-linecap:butt; stroke-linejoin:miter; stroke-opacity:1; stroke-miterlimit:4; stroke-dasharray:none"
 d = "M0 2250 h 2249"
 id = "h-path-bot"
 inkscape:connector-curvature="0"
/>
  <path
           style="fill:none;fill-rule:evenodd;stroke:#000000;stroke-width:0.00096099in;stroke-linecap:butt;stroke-linejoin:miter;stroke-miterlimit:4;stroke-dasharray:none;stroke-opacity:1"
           d="M 0.03569412,285.90326 C 37.912144,287.54979 155.11002,270.06953 142.49678,240.12384 118.0558,182.09738 259.8183,156.89358 195.86421,228.53525 c -35.39911,39.65426 123.55364,65.19187 143.59314,57.28368"
           id="h-path-2"
           inkscape:connector-curvature="0"
           sodipodi:nodetypes="cssc" />
<path
style="fill:none;fill-rule:evenodd;stroke:#000000;stroke-width:0.00099276in;stroke-linecap:butt;stroke-linejoin:miter;stroke-miterlimit:4;stroke-dasharray:none;stroke-opacity:1"
d="m 678.94229,285.99973 c 48.6553,0.79401 215.6431,-3.50535 142.305,-48.675 -50.0721,-30.83996 95.1816,-107.89372 56.9562,-11.58823 -32.4874,81.84907 141.49301,61.4489 140.61321,60.26997"
id="h-path-4"
inkscape:connector-curvature="0"
sodipodi:nodetypes="cssc" />
<path
style="fill:none;fill-rule:evenodd;stroke:#000000;stroke-width:0.00097401in;stroke-linecap:butt;stroke-linejoin:miter;stroke-miterlimit:4;stroke-dasharray:none;stroke-opacity:1"
d="m 1019.3755,286.34861 c 33.216,-0.063 177.2317,16.71459 153.0215,-35.13401 -29.4268,-63.02033 99.0201,-58.38662 39.7833,-11.06001 -54.4227,43.48032 139.055,44.11883 146.1872,45.50237"
id="h-path-5"
inkscape:connector-curvature="0"
sodipodi:nodetypes="cssc" />
<path
style="fill:none;fill-rule:evenodd;stroke:#000000;stroke-width:0.00097401in;stroke-linecap:butt;stroke-linejoin:miter;stroke-miterlimit:4;stroke-dasharray:none;stroke-opacity:1"
d="m 1019.3755,286.34861 c 33.216,-0.063 177.2317,16.71459 153.0215,-35.13401 -29.4268,-63.02033 99.0201,-58.38662 39.7833,-11.06001 -54.4227,43.48032 139.055,44.11883 146.1872,45.50237"
id="h-path-5"
inkscape:connector-curvature="0"
sodipodi:nodetypes="cssc" />
<path
style="fill:none;fill-rule:evenodd;stroke:#000000;stroke-width:0.0010623in;stroke-linecap:butt;stroke-linejoin:miter;stroke-miterlimit:4;stroke-dasharray:none;stroke-opacity:1"
d="m 1358.4335,285.96795 c 37.1864,-0.033 187.8483,4.40932 165.771,-45.45327 -27.3125,-61.6864 88.3127,-63.10268 61.3904,-12.31013 -42.2357,79.6831 103.8432,57.05312 111.8323,58.10935"
id="h-path-6"
inkscape:connector-curvature="0"
sodipodi:nodetypes="cssc" />
<path
style="fill:none;fill-rule:evenodd;stroke:#000000;stroke-width:0.0010623in;stroke-linecap:butt;stroke-linejoin:miter;stroke-miterlimit:4;stroke-dasharray:none;stroke-opacity:1"
d="m 1358.4335,285.96795 c 37.1864,-0.033 187.8483,4.40932 165.771,-45.45327 -27.3125,-61.6864 88.3127,-63.10268 61.3904,-12.31013 -42.2357,79.6831 103.8432,57.05312 111.8323,58.10935"
id="h-path-6"
inkscape:connector-curvature="0"
sodipodi:nodetypes="cssc" />
<path
style="fill:none;fill-rule:evenodd;stroke:#000000;stroke-width:0.00099276in;stroke-linecap:butt;stroke-linejoin:miter;stroke-miterlimit:4;stroke-dasharray:none;stroke-opacity:1"
d="m 678.94229,285.99973 c 48.6553,0.79401 215.6431,-3.50535 142.305,-48.675 -50.0721,-30.83996 95.1816,-107.89372 56.9562,-11.58823 -32.4874,81.84907 141.49301,61.4489 140.61321,60.26997"
id="h-path-4"
inkscape:connector-curvature="0"
sodipodi:nodetypes="cssc" />  <path
           style="fill:none;fill-rule:evenodd;stroke:#000000;stroke-width:0.00096099in;stroke-linecap:butt;stroke-linejoin:miter;stroke-miterlimit:4;stroke-dasharray:none;stroke-opacity:1"
           d="M 0.03569412,285.90326 C 37.912144,287.54979 155.11002,270.06953 142.49678,240.12384 118.0558,182.09738 259.8183,156.89358 195.86421,228.53525 c -35.39911,39.65426 123.55364,65.19187 143.59314,57.28368"
           id="h-path-2"
           inkscape:connector-curvature="0"
           sodipodi:nodetypes="cssc" />
</g>
</svg>