<?xml version="1.0" encoding="UTF-8" standalone="no"?>
<svg
   xmlns:dc="http://purl.org/dc/elements/1.1/"
   xmlns:cc="http://creativecommons.org/ns#"
   xmlns:rdf="http://www.w3.org/1999/02/22-rdf-syntax-ns#"
   xmlns:svg="http://www.w3.org/2000/svg"
   xmlns="http://www.w3.org/2000/svg"
   xmlns:sodipodi="http://sodipodi.sourceforge.net/DTD/sodipodi-0.dtd"
   xmlns:inkscape="http://www.inkscape.org/namespaces/inkscape"
   width="25in"
   height="25in"
   viewBox="0 0 25in 25in"
   id="svgGrid8x8"
   version="1.1"
   inkscape:version="0.91 r13725"
   sodipodi:docname="grid_8x8 - Copy - Copy.svg">
  <metadata
     id="metadata38">
    <rdf:RDF>
      <cc:Work
         rdf:about="">
        <dc:format>image/svg+xml</dc:format>
        <dc:type
           rdf:resource="http://purl.org/dc/dcmitype/StillImage" />
        <dc:title></dc:title>
      </cc:Work>
    </rdf:RDF>
  </metadata>
  <defs
     id="defs36">
    <inkscape:path-effect
       effect="spiro"
       id="path-effect4172"
       is_visible="true" />
    <inkscape:path-effect
       effect="spiro"
       id="path-effect4168"
       is_visible="true" />
  </defs>
  <sodipodi:namedview
     pagecolor="#ffffff"
     bordercolor="#666666"
     borderopacity="1"
     objecttolerance="10"
     gridtolerance="10"
     guidetolerance="10"
     inkscape:pageopacity="0"
     inkscape:pageshadow="2"
     inkscape:window-width="1536"
     inkscape:window-height="841"
     id="namedview34"
     showgrid="false"
     showguides="true"
     inkscape:guide-bbox="true"
     inkscape:zoom="1.3426103"
     inkscape:cx="196.59253"
     inkscape:cy="1513.9077"
     inkscape:window-x="-8"
     inkscape:window-y="-8"
     inkscape:window-maximized="1"
     inkscape:current-layer="layer1">
    <sodipodi:guide
       position="332.36299,1983.2295"
       orientation="0,1"
       id="guide4158" />
    <sodipodi:guide
       position="376.55362,1704.8127"
       orientation="0,1"
       id="guide4160" />
  </sodipodi:namedview>
  <g
     inkscape:label="Layer 1"
     inkscape:groupmode="layer"
     id="layer1"
     transform="translate(0,0)">
    <path
       style="fill:none; fill-rule:evenodd; stroke:#000000; stroke-width:0.001in; stroke-linecap:butt; stroke-linejoin:miter; stroke-opacity:1; stroke-miterlimit:4; stroke-dasharray:none"
       d="M0 0 v 2250"
       id="v-path-left"
       inkscape:connector-curvature="0" />
    <path
       style="fill:none; fill-rule:evenodd; stroke:#000000; stroke-width:0.001in; stroke-linecap:butt; stroke-linejoin:miter; stroke-opacity:1; stroke-miterlimit:4; stroke-dasharray:none"
       d="M2250 0  v 2249"
       id="v-path-right"
       inkscape:connector-curvature="0" />
    <path
       style="fill:none; fill-rule:evenodd; stroke:#000000; stroke-width:0.001in; stroke-linecap:butt; stroke-linejoin:miter; stroke-opacity:1; stroke-miterlimit:4; stroke-dasharray:none"
       d="M0 0 h 2250"
       id="path14"
       inkscape:connector-curvature="0" />
    <path
       style="fill:none; fill-rule:evenodd; stroke:#000000; stroke-width:0.001in; stroke-linecap:butt; stroke-linejoin:miter; stroke-opacity:1; stroke-miterlimit:4; stroke-dasharray:none"
       d="M0 2250 h 2249"
       id="path16"
       inkscape:connector-curvature="0" />
    <path
       style="fill:none;fill-rule:evenodd;stroke:#000000;stroke-width:0.001in;stroke-linecap:butt;stroke-linejoin:miter;stroke-miterlimit:4;stroke-dasharray:none;stroke-opacity:1"
       d="m 0,270 c 40.263935,1.49449 114.43774,-2.53662 100.42488,-31.20139 -30.409107,-55.85986 67.13537,-50.55814 57.79004,-11.58819 -12.81648,53.44464 32.65526,40.69646 101.61716,38.48692 68.9619,-2.20954 106.20236,0.63152 90.466,-28.27532 -30.40911,-55.85986 67.13537,-50.55814 57.79004,-11.58819 -12.81648,53.44464 37.07772,40.02245 44.57986,41.40599 l 100,0.69177 c 35.013,-0.0629 61.99073,-2.28755 46.25437,-31.19439 -30.40911,-55.85986 67.13537,-50.55814 57.79004,-11.58819 -12.81648,53.44464 37.07772,40.02245 45.82879,40.71422 l 100,0.69177 c 35.013,-0.0629 61.99073,-2.28755 46.25437,-31.19439 -30.40911,-55.85986 67.13537,-50.55814 57.79004,-11.58819 -12.81648,53.44464 37.07772,40.02245 44.57986,41.40599 l 100.00005,0.69177 c 35.013,-0.0629 61.9907,-2.28755 46.2543,-31.19439 -30.4091,-55.85986 67.1354,-50.55814 57.7901,-11.58819 -12.8165,53.44464 37.0777,40.02245 45.8288,40.71422 l 100,0.69177 c 35.013,-0.0629 61.9907,-2.28755 46.2543,-31.19439 -30.4091,-55.85986 67.1354,-50.55814 57.7901,-11.58819 -12.8165,53.44464 37.0777,40.02245 44.5798,41.40599 L 2249,270"
       id="path18"
       inkscape:connector-curvature="0"
       sodipodi:nodetypes="ccscssccssccssccssccsscc" />
    <path
       style="fill:none;               fill-rule:evenodd;               stroke:#000000;               stroke-width:0.001in;               stroke-linecap:butt;               stroke-linejoin:miter;               stroke-opacity:1;               stroke-miterlimit:4;               stroke-dasharray:none"
       d="M0 1080.0 h 2249"
       id="path24"
       inkscape:connector-curvature="0" />
    <path
       style="fill:none; fill-rule:evenodd; stroke:#000000; stroke-width:0.001in; stroke-linecap:butt; stroke-linejoin:miter; stroke-opacity:1; stroke-miterlimit:4; stroke-dasharray:none"
       d="M0 1350.0 h 2249"
       id="path26"
       inkscape:connector-curvature="0" />
    <path
       style="fill:none; fill-rule:evenodd; stroke:#000000; stroke-width:0.001in; stroke-linecap:butt; stroke-linejoin:miter; stroke-opacity:1; stroke-miterlimit:4; stroke-dasharray:none"
       d="M0 1620.0 h 2249"
       id="path28"
       inkscape:connector-curvature="0" />
    <path
       style="fill:none; fill-rule:evenodd; stroke:#000000; stroke-width:0.001in; stroke-linecap:butt; stroke-linejoin:miter; stroke-opacity:1; stroke-miterlimit:4; stroke-dasharray:none"
       d="M0 1890.0 h 2249"
       id="path30"
       inkscape:connector-curvature="0" />
    <path
       style="fill:none; fill-rule:evenodd; stroke:#000000; stroke-width:0.001in; stroke-linecap:butt; stroke-linejoin:miter; stroke-opacity:1; stroke-miterlimit:4; stroke-dasharray:none"
       d="M0 2160.0 h 2249"
       id="path32"
       inkscape:connector-curvature="0" />
    <path
       style="fill:none;fill-rule:evenodd;stroke:#000000;stroke-width:0.001in;stroke-linecap:butt;stroke-linejoin:miter;stroke-miterlimit:4;stroke-dasharray:none;stroke-opacity:1"
       d="M 5.8149728e-6,544.93001 C 38.105734,547.56982 125.46799,535.00838 100.42489,511.02791 2.596214,425.51152 178.5949,439.50922 158.21493,499.43972 c -7.59963,34.25712 24.99964,45.81497 65.73724,45.78413 57.8663,-0.0438 132.15344,-23.33451 130.97276,-36.99617 10.39424,-107.17202 122.27072,-81.94511 53.1632,-10.16455 -17.44472,34.54202 29.43023,47.22344 81.65574,47.21319 61.57063,-0.0121 130.50438,-17.56612 109.17849,-36.30982 -35.15126,-28.59252 66.87605,-49.06706 57.79004,-11.58819 -0.85047,35.12086 42.929,47.61816 89.36583,47.75638 53.23583,0.15847 109.96413,-15.92616 106.94518,-32.78845 -13.80724,-68.23282 100.25915,-67.84318 41.9356,-11.0597 -8.85102,29.25536 63.95701,44.23105 126.32719,43.94922 55.9735,-0.25292 103.5405,-12.79422 76.1336,-38.33067 -51.8606,-35.74999 109.7698,-58.12639 66.7587,0.36998 -20.3805,27.40272 29.6581,38.18117 84.0271,37.9202 65.907,-0.31635 138.1774,-16.8547 99.0874,-39.66677 -53.4717,-21.49348 101.9674,-55.48201 57.7901,-11.58819 -38.9874,38.73724 31.7927,49.83746 39.2948,51.221 L 2249,542.2293"
       id="path18-1"
       inkscape:connector-curvature="0"
       sodipodi:nodetypes="cccsccsccsccsccscscc" />
    <path
       style="fill:none;fill-rule:evenodd;stroke:#000000;stroke-width:0.001in;stroke-linecap:butt;stroke-linejoin:miter;stroke-miterlimit:4;stroke-dasharray:none;stroke-opacity:1"
       d="M 0.00310996,830.00112
          C 38.10891,832.64093 125.47112,820.07949 100.42802,796.09902
          c -97.82871,-85.51639 78.17001,-71.51869 57.79004,-11.58819 -7.59963,34.25712 24.99964,45.81497 65.73724,45.78413"
       id="path18-1-9"
       inkscape:connector-curvature="0"
       sodipodi:nodetypes="cccc" />
  </g>
</svg>
